<svg xmlns="http://www.w3.org/2000/svg" width="24" height="24" viewBox="0 0 24 24" fill="none" stroke-width="1.5" stroke-linecap="round" stroke-linejoin="round">
  <title>Bitmap</title>
  <path d="M3.75 2.75H19.75A1 1 0 0 1 20.75 3.75V19.75A1 1 0 0 1 19.75 20.75H3.75A1 1 0 0 1 2.75 19.75V3.75A1 1 0 0 1 3.75 2.75Z" fill="#FFFFFF" stroke="#5B6478"/>
  <rect x="3" y="3" width="6" height="6" fill="#2F5BFF"/>
  <rect x="15" y="3" width="6" height="6" fill="#08805E"/>
  <rect x="9" y="9" width="6" height="6" fill="#FFB224"/>
  <rect x="3" y="15" width="6" height="6" fill="#6F42E5"/>
  <rect x="15" y="15" width="6" height="6" fill="#2F5BFF"/>
  <path d="M3.75 2.75H19.75A1 1 0 0 1 20.75 3.75V19.75A1 1 0 0 1 19.75 20.75H3.75A1 1 0 0 1 2.75 19.75V3.75A1 1 0 0 1 3.75 2.75Z" stroke="#5B6478"/>
</svg>
