<svg xmlns="http://www.w3.org/2000/svg" width="16" height="16" viewBox="0 0 16 16" fill="none" stroke-width="1" stroke-linecap="round" stroke-linejoin="round">
  <title>Date and time picker</title>
  <path d="M3 3.5H13A1.5 1.5 0 0 1 14.5 5V13A1.5 1.5 0 0 1 13 14.5H3A1.5 1.5 0 0 1 1.5 13V5A1.5 1.5 0 0 1 3 3.5Z" fill="#FFFFFF" stroke="#5B6478"/>
  <path d="M1.5 6.5V4.5A1.5 1.5 0 0 1 3.5 3.5H12.5A1.5 1.5 0 0 1 14.5 4.5V6.5L1.5 6.5Z" fill="#E3E9FF" stroke="#5B6478"/>
  <path d="M5.5 1.5L5.5 4.5" stroke="#5B6478"/>
  <path d="M10.5 1.5L10.5 4.5" stroke="#5B6478"/>
  <rect x="9" y="9" width="3" height="3" fill="#2F5BFF"/>
</svg>
